<?xml version="1.0" encoding="utf-8"?>
<!-- Generator: Adobe Illustrator 22.1.0, SVG Export Plug-In . SVG Version: 6.00 Build 0)  -->
<svg version="1.1" id="Capa_1" xmlns="http://www.w3.org/2000/svg" xmlns:xlink="http://www.w3.org/1999/xlink" x="0px" y="0px"
	 viewBox="0 0 264 61.9" style="enable-background:new 0 0 264 61.9;" xml:space="preserve">
<style type="text/css">
	.st0{fill:#FF783B;}
</style>
<g>
	<path class="st0" d="M25.7,20.5l-3.6-2.8c-1.7-1.3-3.6-2.8-5.1-2.8h-4c-1.7,0-3.8,1.9-5.4,3.3L6.7,19c-0.1-3.4-1.8-4.2-3.3-4.2
		C0,14.9,0,18.1,0,19.7v37.7c0,1.1,0,4.5,3.4,4.5s3.4-3.4,3.4-4.5v-11l0.5,0.5c0.3,0.3,0.6,0.6,0.9,0.9c1.5,1.5,2.8,2.8,5.2,2.8h4
		c1.6,0,3.4-1.4,4.7-2.5L26,45c3.6-2.9,3.9-4.6,3.9-9v-6.4C29.6,25.1,29.3,23.4,25.7,20.5z M22.9,28.7v8c0,1-0.3,1.6-1.1,2.3
		l-4.4,3.7c-0.5,0.5-1.1,1-1.7,1h-1.5c-0.7,0-1.8-1.1-2.2-1.6l-4.5-4.3c-0.5-0.5-0.7-1.5-0.7-2.2v-5.9c0-1.1,0.3-1.7,1.5-2.9
		l3.7-3.6l0.1-0.1c0.5-0.5,1.5-1.5,2.1-1.5h1.5c0.6,0,1.2,0.5,1.8,1l4.4,3.7C22.6,27.1,22.9,27.6,22.9,28.7z"/>
	<path class="st0" d="M63.9,24.8c-0.1-2.9-0.2-5.4-2.7-7.7c-2.6-2.3-4.8-2.3-6-2.3h-3.9c-2,0-3.8,1-5.5,2.1l-4.1,2.8V7.1
		c0-1.1,0-4.5-3.4-4.5S34.9,6,34.9,7.1v37.7c0,1.1,0,4.5,3.4,4.5s3.4-3.4,3.4-4.5V27.6l8.5-5.4c0.5-0.3,1.1-0.5,1.6-0.5h2.7
		c2.6,0,2.7,1.3,2.8,4.1l0.6,19c0,1.1,0.1,4.4,3.4,4.4c1,0,1.7-0.3,2.3-0.8c1-1,1.1-2.7,1-4.1L64,25.5L63.9,24.8z"/>
	<path class="st0" d="M79.7,9.3h3.4c2.1,0,3.2-1.1,3.2-3.2V3.2c0-2.1-1.1-3.2-3.2-3.2h-3.4c-2.1,0-3.2,1.1-3.2,3.2v2.9
		C76.5,8.2,77.6,9.3,79.7,9.3z"/>
	<path class="st0" d="M90.2,42.4h-4v-23c0-3.9-1.2-4.6-4.8-4.6h-6.2c-1.1,0-4.5,0-4.5,3.4c0,1.5,0.8,3.4,4.5,3.4h4.2v20.8h-4.2
		c-1.1,0-4.5,0-4.5,3.4c0,1.5,0.8,3.4,4.5,3.4h14.9c3.7,0,4.5-1.8,4.5-3.4C94.7,42.4,91.3,42.4,90.2,42.4z"/>
	<path class="st0" d="M122.4,31.1l-14.7-6.8c-0.9-0.4-1.3-0.7-1.3-1.4c0-0.4,0.1-0.7,0.3-0.9c0.5-0.4,1.4-0.4,2.2-0.4h9.3
		c1.6,0,2.5,0.2,3.3,1s1.5,1.4,2.8,1.4c1.9,0,3.4-1.5,3.4-3.4c0-1.7-1-2.5-2-3.3c-0.1-0.1-0.3-0.2-0.4-0.4c-2.3-2-3.8-2.1-7.1-2.1
		h-10c-4.9,0-8.5,3.4-8.5,8c0,3.6,1.6,5.9,5.4,7.7l13.8,6.4c1.3,0.6,2.8,1.5,2.8,2.6c0,1-0.2,1.7-0.7,2.1c-0.8,0.8-2.3,0.8-3.5,0.8
		h-8.3c-1.6,0-3.5-0.1-4.4-1.2c-0.7-0.8-1.5-1.2-2.6-1.2c-1.9,0-3.5,1.5-3.5,3.4c0,1.6,1.4,2.7,2.6,3.6l0.3,0.2c2.3,1.8,4.5,2,7.6,2
		h9.1c6.3,0,10.1-3.5,10.1-9.3C128.4,35.7,126.6,33,122.4,31.1z"/>
	<path class="st0" d="M160.3,17.2c-2.6-2.3-4.8-2.3-6-2.3h-3.9c-2,0-3.8,1-5.5,2.1l-4.1,2.8V7.1c0-1.1,0-4.5-3.3-4.5
		c-3.4,0-3.4,3.4-3.4,4.5v37.7c0,1.1,0,4.5,3.4,4.5c3.3,0,3.3-3.4,3.3-4.5V27.6l8.5-5.4c0.5-0.3,1.1-0.5,1.6-0.5h2.7
		c2.6,0,2.7,1.3,2.8,4.1l0.6,19c0,1.1,0.1,4.4,3.4,4.4c0.9,0,1.7-0.3,2.3-0.8c1-1,1.1-2.7,1-4.1l-0.6-19.5
		C163,21.9,162.9,19.4,160.3,17.2z"/>
	<path class="st0" d="M179.4,9.3h3.4c2.1,0,3.2-1.1,3.2-3.2V3.2c0-2.1-1.1-3.2-3.2-3.2h-3.4c-2.1,0-3.2,1.1-3.2,3.2v2.9
		C176.2,8.2,177.3,9.3,179.4,9.3z"/>
	<path class="st0" d="M189.9,42.4h-4v-23c0-3.9-1.2-4.6-4.8-4.6H175c-1.1,0-4.5,0-4.5,3.4c0,1.5,0.8,3.4,4.5,3.4h4.2v20.8H175
		c-1.1,0-4.5,0-4.5,3.4c0,1.5,0.8,3.4,4.5,3.4h14.9c3.7,0,4.5-1.8,4.5-3.4C194.4,42.4,191,42.4,189.9,42.4z"/>
	<path class="st0" d="M228.5,24.8c-0.1-2.9-0.2-5.4-2.7-7.7c-1.9-1.7-3.4-2.3-5.7-2.3h-4.3c-2,0-3.6,1-5.3,2.1l-4.1,2.8l0,0
		c0-1.4,0-4.8-3.3-4.8c-3.4,0-3.4,3.1-3.4,4.8v25c0,1.1,0,4.5,3.4,4.5c3.3,0,3.3-3.4,3.3-4.5V27.6l8.5-5.4c0.5-0.3,1.1-0.5,1.6-0.5
		h2c3.1,0,3.4,1,3.6,4.7l0.6,18.4c0,1.1,0.1,4.4,3.4,4.4c1,0,1.7-0.3,2.3-0.8c1-1,1.1-2.7,1-4.1l-0.6-18.8L228.5,24.8z"/>
	<path class="st0" d="M260.7,14.9c-2,0-3.3,1.5-3.4,3.7l-0.8-0.6c-2.7-2.2-4.5-3.1-6-3.1h-5.7c-1.7,0-2.7,0.6-3.9,1.5l-4.3,3.4
		c-1.3,1.1-2.2,3.7-2.2,6.6v9.1c0,2.5,0.1,4.2,2,5.9l3.7,3.4c1.8,1.7,3.3,1.9,4.7,1.9h6.9c1.4,0,3.1-1,5.1-3l0.5-0.5v7.2
		c0,0.9-0.3,1.7-0.7,2.2l-1.5,1.4c-1,0.8-1.6,1.3-2.7,1.3h-10.8c-1.1,0-4.5,0-4.5,3.4c0,1.5,0.8,3.4,4.5,3.4h9.7
		c3.4,0,4.9-0.4,7.6-2.6l2-1.7c2.6-2.2,3-3.5,3-9V19.5C264,18.1,264,14.9,260.7,14.9z M257.3,28.6V33c0,0.8-0.2,1.4-0.5,1.7
		l-4.5,3.8c-1.1,0.9-1.8,1.5-2.4,1.5h-4.3c-0.6,0-1.1-0.1-1.5-0.5l-2.4-2c-0.6-0.5-0.6-2-0.6-2.8V27c0-0.8,0-2.3,0.6-2.8l2.5-2
		c0.4-0.3,0.8-0.5,1.4-0.5h4.3c0.6,0,1.4,0.6,2.4,1.5l4.5,3.8C257.1,27.2,257.3,27.8,257.3,28.6z"/>
</g>
</svg>
