<?xml version="1.0" encoding="utf-8"?>
<!-- Generator: Adobe Illustrator 22.0.1, SVG Export Plug-In . SVG Version: 6.00 Build 0)  -->
<svg version="1.1" id="Capa_1" xmlns="http://www.w3.org/2000/svg" xmlns:xlink="http://www.w3.org/1999/xlink" x="0px" y="0px"
	 viewBox="0 0 173.3 31.3" style="enable-background:new 0 0 173.3 31.3;" xml:space="preserve">
<style type="text/css">
	.st0{fill:#FFFFFF;}
</style>
<g>
	<g>
		<path class="st0" d="M2.6,20.4c0,3.8,2,8.4,7,8.4c3.8,0,5.8-2.2,6.7-5.4h2.6c-1.1,4.8-3.9,7.6-9.3,7.6C2.8,30.9,0,25.8,0,19.7
			C0,14.1,2.8,8.5,9.6,8.5c6.8,0,9.6,6,9.3,11.9H2.6z M16.3,18.2c-0.1-3.9-2.6-7.6-6.8-7.6c-4.2,0-6.6,3.7-7,7.6H16.3z"/>
		<path class="st0" d="M41.1,30.3h-2.4v-4h-0.1c-1.1,2.8-4.5,4.7-7.6,4.7c-6.5,0-9.6-5.2-9.6-11.2c0-6,3.1-11.2,9.6-11.2
			c3.2,0,6.3,1.6,7.4,4.7h0.1V0.9h2.6V30.3z M31.1,28.8c5.5,0,7.5-4.7,7.5-9.1s-1.9-9.1-7.5-9.1c-4.9,0-7,4.7-7,9.1
			S26.1,28.8,31.1,28.8z"/>
		<path class="st0" d="M63.3,30.3h-2.4v-3.8h-0.1c-1.4,2.8-4.2,4.4-7.3,4.4c-5.4,0-7.5-3.1-7.5-8.1V9.1h2.6v13.8
			c0.1,3.8,1.6,5.8,5.7,5.8c4.4,0,6.4-4.2,6.4-8.5V9.1h2.6V30.3z"/>
		<path class="st0" d="M83.2,15.7c-0.7-3.2-2.6-5.1-6-5.1c-5,0-7.5,4.5-7.5,9.1c0,4.5,2.5,9.1,7.5,9.1c3.2,0,5.8-2.5,6.2-6.1h2.6
			c-0.7,5.1-4,8.2-8.8,8.2c-6.5,0-10-5.1-10-11.2s3.5-11.2,10-11.2c4.5,0,8,2.4,8.6,7.3H83.2z"/>
		<path class="st0" d="M89.3,15.6c0.2-5,3.7-7.1,8.6-7.1c3.7,0,7.8,1.2,7.8,6.8v11.3c0,1,0.5,1.6,1.5,1.6c0.3,0,0.6-0.1,0.8-0.2v2.2
			c-0.6,0.1-1,0.2-1.7,0.2c-2.6,0-3-1.5-3-3.7h-0.1c-1.8,2.8-3.7,4.3-7.7,4.3c-3.9,0-7.1-1.9-7.1-6.2c0-6,5.8-6.2,11.4-6.8
			c2.1-0.2,3.3-0.5,3.3-2.9c0-3.5-2.5-4.4-5.6-4.4c-3.2,0-5.6,1.5-5.7,4.9H89.3z M103.1,18.7L103.1,18.7c-0.4,0.6-1.6,0.8-2.3,0.9
			c-4.4,0.8-9.9,0.7-9.9,4.9c0,2.6,2.3,4.2,4.7,4.2c4,0,7.5-2.5,7.4-6.7V18.7z"/>
	</g>
	<g>
		<path class="st0" d="M111.9,0h7.3v30.7h-7.3V0z"/>
		<path class="st0" d="M124.3,15.3c0.1-2.9,1.5-4.8,3.5-6c2-1.1,4.6-1.5,7.1-1.5c5.3,0,10.4,1.2,10.4,7.5V25c0,1.9,0,4,0.9,5.7h-7.4
			c-0.3-0.7-0.3-1.4-0.4-2.1c-1.9,2-4.7,2.8-7.4,2.8c-4.3,0-7.6-2.1-7.6-6.8c0-7.3,7.9-6.7,13-7.7c1.2-0.3,1.9-0.7,1.9-2.1
			c0-1.7-2-2.3-3.5-2.3c-2,0-3.3,0.9-3.7,2.8H124.3z M133.8,26.8c3.5,0,4.6-2,4.5-6.6c-1,0.6-2.9,0.8-4.5,1.2c-1.6,0.4-3,1.1-3,2.8
			C130.7,26.1,132.1,26.8,133.8,26.8z"/>
		<path class="st0" d="M150.1,0h7.3v10.8h0.1c1.5-2.1,3.6-3.1,6.4-3.1c6.3,0,9.4,5.5,9.4,11.3c0,6.3-3,12.3-10,12.3
			c-2.6,0-4.7-1.1-6.1-3.2h-0.1v2.6h-7V0z M157.2,19.3c0,3.9,1.1,6.5,4.4,6.5c3.3,0,4.4-3.4,4.4-6.5c0-2.8-1.1-6-4.3-6
			C159.7,13.3,157.2,14.7,157.2,19.3z"/>
	</g>
</g>
</svg>
