<?xml version="1.0" encoding="utf-8"?>
<!-- Generator: Adobe Illustrator 22.0.1, SVG Export Plug-In . SVG Version: 6.00 Build 0)  -->
<svg version="1.1" id="Capa_1" xmlns="http://www.w3.org/2000/svg" xmlns:xlink="http://www.w3.org/1999/xlink" x="0px" y="0px"
	 viewBox="0 0 100.1 23.7" style="enable-background:new 0 0 100.1 23.7;" xml:space="preserve">
<style type="text/css">
	.st0{fill:#26AF8C;}
</style>
<g>
	<path class="st0" d="M0,21.6c0.9-0.1,1.5-0.3,1.9-0.7c0.4-0.4,0.6-1.1,0.6-2.2l0-14.2c0-1-0.2-1.7-0.5-2c-0.3-0.4-1-0.6-2.1-0.8
		l0-1.2l9.2,0l0,3.5C10,2.9,11,1.9,12.2,1.1s2.5-1.1,4-1.1c2.1,0,3.7,0.5,4.8,1.6c1.1,1.1,1.7,3,1.7,5.6l0,11.7
		c0,1.1,0.2,1.8,0.5,2.1c0.4,0.3,1,0.5,1.9,0.6l0,1.2l-11.4,0l0-1.2c0.9-0.2,1.5-0.4,1.8-0.7c0.3-0.3,0.5-1,0.5-2l0-11.7
		c0-1.1-0.1-1.9-0.3-2.5c-0.4-1-1.1-1.5-2.2-1.5c-0.8,0-1.6,0.3-2.3,0.9C10.4,4.8,9.8,5.4,9.4,6l0,12.9c0,1.1,0.2,1.7,0.5,2
		c0.3,0.3,0.9,0.5,1.8,0.7l0,1.2L0,22.8L0,21.6z"/>
	<path class="st0" d="M30.2,3.1c2-2,4.4-3.1,7.2-3.1c1.6,0,3.1,0.4,4.5,1.3s2.5,2,3.2,3.5c0.6,1.1,1,2.6,1.2,4.3
		c0.1,0.8,0.2,1.5,0.2,1.9l-12.3,0c0.1,1.9,0.4,3.6,0.9,5c0.9,2.7,2.6,4,5,4c1.1,0,2.2-0.3,3.2-1.1c0.6-0.4,1.4-1.1,2.3-2.1l1.1,0.7
		c-1.5,2.5-3.2,4.2-5.2,5.1c-1.3,0.6-2.7,0.9-4.4,0.9c-2.4,0-4.6-0.9-6.7-2.8c-2.1-1.9-3.1-4.9-3.1-9C27.2,8,28.2,5.2,30.2,3.1z
		 M40.5,9.3c0-2.8-0.2-4.8-0.6-6s-1.2-1.7-2.5-1.7c-1.3,0-2.1,0.6-2.6,2c-0.5,1.3-0.7,3.2-0.8,5.7L40.5,9.3z"/>
	<path class="st0" d="M59.2,0.7l0,1.2c-0.6,0-1,0.2-1.3,0.3c-0.3,0.2-0.5,0.5-0.5,1.1c0,0.2,0,0.4,0.1,0.5c0,0.2,0.1,0.4,0.3,0.8
		l3.7,9.5l0.2,0l3.1-7.9c0-0.1-0.1-0.6-0.4-1.4C64,3.9,63.8,3.3,63.6,3c-0.3-0.4-0.5-0.7-0.7-0.8c-0.2-0.1-0.7-0.2-1.4-0.3l0-1.2
		l11.3,0l0,1.2c-0.7,0-1.2,0.1-1.7,0.3c-0.4,0.1-0.6,0.4-0.6,0.8c0,0.2,0,0.5,0.1,0.8c0.1,0.3,0.2,0.7,0.3,1.2l2.9,8.7l-0.3,0
		l3.6-9.2c0-0.2,0.1-0.3,0.1-0.5c0-0.1,0-0.3,0-0.4c0-0.7-0.2-1.1-0.6-1.3c-0.4-0.2-1-0.3-1.8-0.4l0-1.2l6.6,0l0,1.2
		c-0.6,0.1-1,0.3-1.4,0.6c-0.3,0.3-0.7,0.9-1,1.8l-7.6,19.3l-1.1,0L65.5,8.7l-0.2,0l-5.8,14.9l-1.2,0L51.1,5.5
		c-0.6-1.5-1-2.5-1.3-2.9c-0.3-0.4-0.8-0.7-1.4-0.8l0-1.2L59.2,0.7z"/>
	<path class="st0" d="M83.7,15.7l1.3,0c0.5,2.3,1.3,4,2.6,4.9c1.3,1,2.6,1.4,4,1.4c1.2,0,2.2-0.3,2.7-0.8s0.9-1.3,0.9-2.2
		c0-0.9-0.3-1.6-0.9-2.2c-0.3-0.3-0.9-0.7-1.7-1.1L89.1,14c-1.9-0.9-3.2-1.9-4.1-3c-0.8-1.1-1.2-2.4-1.2-3.9c0-1.9,0.7-3.5,2-4.8
		c1.3-1.4,3.1-2,5.5-2c1,0,2.1,0.2,3.3,0.5s1.9,0.5,2.1,0.5c0.4,0,0.7-0.1,0.8-0.2c0.2-0.2,0.3-0.4,0.4-0.7l1.1,0l0,7l-1.2,0
		c-0.5-1.6-1.2-3-2.2-3.9c-1-1-2.2-1.5-3.6-1.5c-1.1,0-1.9,0.3-2.4,0.9S88.7,4,88.7,4.7c0,0.6,0.2,1.1,0.7,1.7
		c0.5,0.6,1.3,1.2,2.6,1.8l2.6,1.3c1.6,0.8,2.8,1.6,3.6,2.3c1.3,1.3,1.9,2.8,1.9,4.7c0,1.8-0.7,3.5-2,5s-3.3,2.3-5.8,2.3
		c-0.6,0-1.3-0.1-1.9-0.2c-0.7-0.1-1.5-0.4-2.4-0.7l-0.8-0.3c-0.3-0.1-0.5-0.2-0.6-0.2c-0.1,0-0.2,0-0.3,0c-0.3,0-0.5,0.1-0.7,0.3
		c-0.2,0.2-0.4,0.6-0.7,1.1l-1.2,0L83.7,15.7z"/>
</g>
</svg>
