<?xml version="1.0" encoding="utf-8"?>
<!-- Generator: Adobe Illustrator 22.0.1, SVG Export Plug-In . SVG Version: 6.00 Build 0)  -->
<svg version="1.1" id="Capa_1" xmlns="http://www.w3.org/2000/svg" xmlns:xlink="http://www.w3.org/1999/xlink" x="0px" y="0px"
	 viewBox="0 0 279.8 31.3" style="enable-background:new 0 0 279.8 31.3;" xml:space="preserve">
<style type="text/css">
	.st0{fill:#F3EA68;}
	.st1{fill:#FFFFFF;}
</style>
<g>
	<path class="st0" d="M115.6,30.7h-8.2v-2.5h-0.1c-1.1,1.4-2.4,3-6.5,3c-6.3,0-9.4-6.2-9.4-11.8c0-5.2,2-11.6,9.5-11.6
		c2.5,0,4.8,1.1,6.1,3h0.1V0h8.5V30.7z M103.7,14c-3.1,0-3.7,2.9-3.7,5.5c0,2.7,0.7,5.5,3.7,5.5c3.1,0,3.7-2.9,3.7-5.5
		C107.4,16.9,106.7,14,103.7,14z"/>
	<path class="st0" d="M127.4,21.5c0.2,2.5,1.7,4.3,4.3,4.3c1.4,0,2.9-0.5,3.6-1.6h8c-1.7,4.8-6.4,7.1-11.5,7.1
		c-7.1,0-12.5-4.2-12.5-11.7c0-6.5,4.7-11.8,11.8-11.8c8.9,0,12.7,4.9,12.7,13.6H127.4z M135.6,17c0-2.1-1.5-3.7-3.7-3.7
		c-2.5,0-4,1.3-4.4,3.7H135.6z"/>
	<path class="st0" d="M157.6,8.4h4.6v5.2h-4.6v7.8c0,2.1,0.5,3,2.6,3c0.6,0,1.3,0,1.9-0.1v6.4c-1.7,0-3.7,0.3-5.5,0.3
		c-3.6,0-7.6-0.6-7.6-6.7V13.6h-3.8V8.4h3.8V1.6h8.5V8.4z"/>
	<path class="st0" d="M172,21.5c0.2,2.5,1.7,4.3,4.3,4.3c1.4,0,2.9-0.5,3.6-1.6h8c-1.7,4.8-6.4,7.1-11.5,7.1
		c-7.1,0-12.5-4.2-12.5-11.7c0-6.5,4.7-11.8,11.8-11.8c8.9,0,12.7,4.9,12.7,13.6H172z M180.2,17c0-2.1-1.5-3.7-3.7-3.7
		c-2.5,0-4,1.3-4.4,3.7H180.2z"/>
	<path class="st0" d="M206.3,16.9c-0.1-0.9-0.4-1.6-0.9-2.1c-0.5-0.5-1.2-0.7-2.1-0.7c-3.3,0-3.7,2.8-3.7,5.5s0.5,5.5,3.7,5.5
		c1.8,0,3.1-1.5,3.3-3.3h8.1c-0.4,3-1.8,5.4-3.9,7c-2,1.6-4.7,2.5-7.7,2.5c-6.7,0-12.1-4.6-12.1-11.7s5.4-11.7,12.1-11.7
		c5.8,0,10.8,2.9,11.4,9H206.3z"/>
	<path class="st0" d="M228.5,8.4h4.6v5.2h-4.6v7.8c0,2.1,0.5,3,2.6,3c0.6,0,1.3,0,1.9-0.1v6.4c-1.7,0-3.7,0.3-5.5,0.3
		c-3.6,0-7.6-0.6-7.6-6.7V13.6h-3.8V8.4h3.8V1.6h8.5V8.4z"/>
	<path class="st0" d="M246.9,31.3c-8.4,0-12.2-5.5-12.2-11.7c0-6.2,3.8-11.7,12.2-11.7c8.4,0,12.2,5.5,12.2,11.7
		C259.1,25.7,255.3,31.3,246.9,31.3z M246.9,14c-3.2,0-3.7,3.1-3.7,5.5s0.4,5.5,3.7,5.5c3.2,0,3.7-3.2,3.7-5.5S250.2,14,246.9,14z"
		/>
	<path class="st0" d="M262.8,8.4h8.2V12h0.1c1.4-2.7,3.2-4.1,6.3-4.1c0.9,0,1.7,0.1,2.5,0.3v7.5c-0.9-0.3-1.6-0.6-3.4-0.6
		c-3.4,0-5.2,2-5.2,6.8v8.8h-8.5V8.4z"/>
</g>
<g>
	<polygon class="st1" points="17.8,13.9 17.8,7.8 0,7.8 0,30.8 7.3,30.8 7.3,22.1 16.3,22.1 16.3,16.4 7.3,16.4 7.3,13.9 	"/>
	<path class="st1" d="M32.3,7.9L32.3,7.9l-7.1-0.1l-8.4,22.8l-0.1,0.2h7.3l1-3.2h7l1,3.2h7.5L32.3,7.9z M30.7,22.4h-4l2.1-6.6
		L30.7,22.4z"/>
	<polygon class="st1" points="56.5,16.8 64.9,7.8 55.9,7.8 49.8,15.5 49.8,7.8 42.5,7.8 42.5,30.8 49.8,30.8 49.8,24 51.6,22 
		57.1,30.7 57.1,30.8 66.2,30.8 	"/>
	<polygon class="st1" points="75.1,24.7 75.1,22.1 85.8,22.1 85.8,16.4 75.1,16.4 75.1,13.9 86.9,13.9 86.9,7.8 67.8,7.8 67.8,30.8 
		87.3,30.8 87.3,24.7 	"/>
</g>
</svg>
