<?xml version="1.0" encoding="utf-8"?>
<!-- Generator: Adobe Illustrator 22.1.0, SVG Export Plug-In . SVG Version: 6.00 Build 0)  -->
<svg version="1.1" id="Capa_1" xmlns="http://www.w3.org/2000/svg" xmlns:xlink="http://www.w3.org/1999/xlink" x="0px" y="0px"
	 viewBox="0 0 126.2 33.1" style="enable-background:new 0 0 126.2 33.1;" xml:space="preserve">
<style type="text/css">
	.st0{fill:#59A5E5;}
</style>
<g>
	<path class="st0" d="M0,31.3c0.9-0.1,1.5-0.3,1.9-0.7c0.4-0.4,0.6-1.1,0.6-2.2V3.9c0-1-0.2-1.6-0.5-2C1.7,1.5,1,1.3,0,1.1V0h9.3
		v13.5c1-1.2,2-2.1,3.1-2.8c1.1-0.6,2.3-1,3.7-1c1.8,0,3.4,0.5,4.6,1.6s1.8,2.9,1.8,5.5v11.5c0,1.1,0.2,1.8,0.6,2.1
		c0.4,0.3,1,0.6,1.8,0.8v1.1H13.6v-1.1c0.9-0.2,1.4-0.4,1.8-0.7c0.3-0.3,0.5-1,0.5-2V17c0-1.1-0.1-1.9-0.3-2.5
		c-0.4-1-1.1-1.5-2.2-1.5c-0.8,0-1.7,0.4-2.6,1.1c-0.9,0.8-1.3,1.3-1.3,1.6v12.9c0,1,0.2,1.7,0.5,2c0.3,0.3,0.9,0.5,1.8,0.7v1.1H0
		V31.3z"/>
	<path class="st0" d="M29.9,12.8c2-2,4.3-3.1,7.1-3.1c1.6,0,3.1,0.4,4.5,1.2c1.4,0.8,2.5,2,3.2,3.4c0.6,1.1,1,2.5,1.2,4.3
		c0.1,0.8,0.2,1.5,0.2,1.9H33.8c0.1,1.9,0.4,3.6,0.9,5c0.9,2.6,2.6,4,5,4c1.1,0,2.2-0.4,3.2-1.1c0.6-0.4,1.4-1.1,2.3-2.1l1.1,0.7
		c-1.5,2.4-3.2,4.1-5.2,5.1c-1.3,0.6-2.7,0.9-4.4,0.9c-2.4,0-4.6-0.9-6.6-2.8C28,28.5,27,25.5,27,21.4C27,17.7,28,14.9,29.9,12.8z
		 M40.1,18.9c0-2.8-0.3-4.8-0.7-5.9c-0.4-1.1-1.2-1.7-2.4-1.7c-1.3,0-2.1,0.6-2.6,1.9c-0.5,1.3-0.7,3.2-0.8,5.7H40.1z"/>
	<path class="st0" d="M51.6,22.8c2.1-1.3,5.3-2.5,9.8-3.8v-3.5c0-1.4-0.3-2.5-0.9-3.2c-0.6-0.7-1.7-1-3.2-1c-0.9,0-1.6,0.2-2.1,0.5
		s-0.8,0.7-0.8,1.2c0,0.2,0,0.3,0.1,0.5c0.1,0.1,0.2,0.3,0.3,0.4l0.3,0.3c0.2,0.3,0.4,0.6,0.5,0.9c0.1,0.3,0.2,0.7,0.2,1
		c0,0.9-0.3,1.6-0.9,2.1c-0.6,0.5-1.3,0.7-2.1,0.7c-0.9,0-1.7-0.3-2.4-0.8c-0.6-0.5-1-1.3-1-2.4c0-1.8,0.9-3.3,2.6-4.4
		c1.7-1.1,3.9-1.6,6.4-1.6c2.7,0,5,0.5,6.8,1.6c1.8,1.1,2.7,3,2.7,5.9v11.6c0,0.3,0.1,0.6,0.3,0.9c0.2,0.2,0.4,0.4,0.6,0.4
		c0.2,0,0.4,0,0.5-0.1c0.1-0.1,0.4-0.3,0.7-0.6l0.7,1c-0.9,1.1-2,1.9-3.1,2.3c-0.7,0.3-1.5,0.4-2.3,0.4c-1.4,0-2.5-0.4-3.1-1.2
		c-0.4-0.5-0.6-1.2-0.8-2.1c-1.3,1.3-2.8,2.3-4.5,2.8c-1,0.3-2,0.5-3,0.5c-1.3,0-2.5-0.4-3.7-1.3C49,31,48.5,29.7,48.5,28
		C48.5,25.8,49.5,24.1,51.6,22.8z M60,29c0.4-0.3,0.8-0.7,1.3-1.3v-7c-1.3,0.3-2.4,0.8-3.4,1.5c-1.6,1.1-2.5,2.6-2.5,4.4
		c0,1.1,0.2,1.8,0.7,2.4c0.5,0.5,1,0.8,1.6,0.8C58.6,29.7,59.3,29.5,60,29z"/>
	<path class="st0" d="M72,31.3c0.8-0.2,1.4-0.5,1.8-0.8c0.4-0.3,0.5-1,0.5-2.1V3.9c0-1-0.2-1.7-0.5-2S72.9,1.4,72,1.1V0h9.1v28.4
		c0,1.1,0.2,1.8,0.5,2.1c0.3,0.3,1,0.6,1.8,0.8v1.1H72V31.3z"/>
	<path class="st0" d="M85.4,12.5v-1.3c0.4-0.4,0.9-0.9,1.6-1.4c0.8-0.8,1.6-1.6,2.3-2.4c1.5-1.6,2.8-3.3,4-5.1h1.2v8.1h4.6v2.1h-4.6
		v14.4c0,0.7,0.1,1.2,0.3,1.7c0.3,0.7,0.8,1.1,1.5,1.1c0.6,0,1.1-0.2,1.6-0.7c0.4-0.4,0.8-1.1,1.3-1.8l1.1,0.6
		c-0.6,1.3-1.2,2.4-2,3.2c-1.4,1.5-3.1,2.2-5,2.2c-1.1,0-2.1-0.2-3-0.6c-1.6-0.8-2.4-2.3-2.4-4.4V12.5H85.4z"/>
	<path class="st0" d="M101.4,31.3c0.9-0.1,1.5-0.3,1.9-0.7c0.4-0.4,0.6-1.1,0.6-2.2V3.9c0-1-0.2-1.6-0.5-2c-0.3-0.4-1-0.6-2-0.8V0
		h9.3v13.5c1-1.2,2-2.1,3.1-2.8c1.1-0.6,2.3-1,3.7-1c1.8,0,3.4,0.5,4.6,1.6c1.2,1.1,1.8,2.9,1.8,5.5v11.5c0,1.1,0.2,1.8,0.6,2.1
		c0.4,0.3,1,0.6,1.8,0.8v1.1h-11.3v-1.1c0.9-0.2,1.4-0.4,1.8-0.7c0.3-0.3,0.5-1,0.5-2V17c0-1.1-0.1-1.9-0.3-2.5
		c-0.4-1-1.1-1.5-2.2-1.5c-0.8,0-1.7,0.4-2.6,1.1c-0.9,0.8-1.3,1.3-1.3,1.6v12.9c0,1,0.2,1.7,0.5,2c0.3,0.3,0.9,0.5,1.8,0.7v1.1
		h-11.6V31.3z"/>
</g>
</svg>
