<?xml version="1.0" encoding="utf-8"?>
<!-- Generator: Adobe Illustrator 22.1.0, SVG Export Plug-In . SVG Version: 6.00 Build 0)  -->
<svg version="1.1" id="Capa_1" xmlns="http://www.w3.org/2000/svg" xmlns:xlink="http://www.w3.org/1999/xlink" x="0px" y="0px"
	 viewBox="0 0 84.5 31.4" style="enable-background:new 0 0 84.5 31.4;" xml:space="preserve">
<style type="text/css">
	.st0{fill:#FFFFFF;}
</style>
<g>
	<g>
		<path class="st0" d="M2.6,20.4c0,3.8,2,8.4,7,8.4c3.8,0,5.8-2.2,6.7-5.4h2.6C17.8,28.2,15,31,9.6,31C2.8,30.9,0,25.8,0,19.7
			C0,14.1,2.8,8.5,9.6,8.5s9.6,6,9.3,11.9H2.6z M16.3,18.2c-0.1-3.9-2.6-7.6-6.8-7.6s-6.6,3.7-7,7.6H16.3z"/>
	</g>
	<g>
		<path class="st0" d="M23.1,0h7.3v30.7h-7.3C23.1,30.7,23.1,0,23.1,0z"/>
		<path class="st0" d="M35.5,15.3c0.1-2.9,1.5-4.8,3.5-6c2-1.1,4.6-1.5,7.1-1.5c5.3,0,10.4,1.2,10.4,7.5V25c0,1.9,0,4,0.9,5.7H50
			c-0.3-0.7-0.3-1.4-0.4-2.1c-1.9,2-4.7,2.8-7.4,2.8c-4.3,0-7.6-2.1-7.6-6.8c0-7.3,7.9-6.7,13-7.7c1.2-0.3,1.9-0.7,1.9-2.1
			c0-1.7-2-2.3-3.5-2.3c-2,0-3.3,0.9-3.7,2.8C42.3,15.3,35.5,15.3,35.5,15.3z M45,26.8c3.5,0,4.6-2,4.5-6.6c-1,0.6-2.9,0.8-4.5,1.2
			c-1.6,0.4-3,1.1-3,2.8C41.9,26.1,43.3,26.8,45,26.8z"/>
		<path class="st0" d="M61.3,0h7.3v10.8h0.1c1.5-2.1,3.6-3.1,6.4-3.1c6.3,0,9.4,5.5,9.4,11.3c0,6.3-3,12.3-10,12.3
			c-2.6,0-4.7-1.1-6.1-3.2h-0.1v2.6h-7L61.3,0L61.3,0z M68.4,19.3c0,3.9,1.1,6.5,4.4,6.5s4.4-3.4,4.4-6.5c0-2.8-1.1-6-4.3-6
			C70.9,13.3,68.4,14.7,68.4,19.3z"/>
	</g>
</g>
</svg>
